<?xml version="1.0" encoding="UTF-8" standalone="no"?>
<!DOCTYPE svg PUBLIC "-//W3C//DTD SVG 1.1//EN"
 "http://www.w3.org/Graphics/SVG/1.1/DTD/svg11.dtd">
<!-- Generated by graphviz version 2.43.0 (0)
 -->
<!-- Title: G Pages: 1 -->
<svg width="644pt" height="1866pt"
 viewBox="0.00 0.00 644.00 1865.72" xmlns="http://www.w3.org/2000/svg" xmlns:xlink="http://www.w3.org/1999/xlink">
<g id="graph0" class="graph" transform="scale(1 1) rotate(0) translate(4 1861.72)">
<title>G</title>
<polygon fill="#1a1b26" stroke="transparent" points="-4,4 -4,-1861.72 640,-1861.72 640,4 -4,4"/>
<!-- 0 -->
<g id="node1" class="node">
<title>0</title>
<path fill="#24283b" stroke="#565f89" d="M121.32,-1687.56C121.32,-1687.56 270.31,-1611.59 270.31,-1611.59 275.65,-1608.86 286.35,-1608.86 291.69,-1611.59 291.69,-1611.59 440.68,-1687.56 440.68,-1687.56 446.03,-1690.29 451.37,-1699.01 451.36,-1705.01 451.36,-1705.01 451.23,-1821.57 451.23,-1821.57 451.22,-1827.57 445.21,-1833.57 439.21,-1833.57 439.21,-1833.57 122.79,-1833.57 122.79,-1833.57 116.79,-1833.57 110.78,-1827.57 110.77,-1821.57 110.77,-1821.57 110.64,-1705.01 110.64,-1705.01 110.63,-1699.01 115.97,-1690.29 121.32,-1687.56"/>
<text text-anchor="middle" x="281" y="-1788.66" font-family="Helvetica,sans-Serif" font-size="14.00" fill="#c0caf5">pc0: PUSH1 0</text>
<text text-anchor="middle" x="281" y="-1773.66" font-family="Helvetica,sans-Serif" font-size="14.00" fill="#c0caf5">pc2: DUP1</text>
<text text-anchor="middle" x="281" y="-1758.66" font-family="Helvetica,sans-Serif" font-size="14.00" fill="#c0caf5">pc3: SLOAD</text>
<text text-anchor="middle" x="281" y="-1743.66" font-family="Helvetica,sans-Serif" font-size="14.00" fill="#c0caf5">pc4: SWAP1</text>
<text text-anchor="middle" x="281" y="-1728.66" font-family="Helvetica,sans-Serif" font-size="14.00" fill="#c0caf5">pc5: DUP2</text>
<text text-anchor="middle" x="281" y="-1713.66" font-family="Helvetica,sans-Serif" font-size="14.00" fill="#c0caf5">pc6: PUSH1 15</text>
<text text-anchor="middle" x="281" y="-1698.66" font-family="Helvetica,sans-Serif" font-size="14.00" fill="#c0caf5">pc8: JUMPI</text>
<text text-anchor="middle" x="281" y="-1667.66" font-family="Helvetica,sans-Serif" font-size="14.00" fill="#c0caf5">Stack size req: 0, sizeΔ: 2</text>
</g>
<!-- 1 -->
<g id="node2" class="node">
<title>1</title>
<path fill="#24283b" stroke="darkblue" d="M340,-1555C340,-1555 164,-1555 164,-1555 158,-1555 152,-1549 152,-1543 152,-1543 152,-1363 152,-1363 152,-1357 158,-1351 164,-1351 164,-1351 340,-1351 340,-1351 346,-1351 352,-1357 352,-1363 352,-1363 352,-1543 352,-1543 352,-1549 346,-1555 340,-1555"/>
<text text-anchor="middle" x="252" y="-1539.8" font-family="Helvetica,sans-Serif" font-size="14.00" fill="#c0caf5">pc9: PUSH1 1</text>
<text text-anchor="middle" x="252" y="-1524.8" font-family="Helvetica,sans-Serif" font-size="14.00" fill="#c0caf5">pc11: SWAP2</text>
<text text-anchor="middle" x="252" y="-1509.8" font-family="Helvetica,sans-Serif" font-size="14.00" fill="#c0caf5">pc12: POP</text>
<text text-anchor="middle" x="252" y="-1494.8" font-family="Helvetica,sans-Serif" font-size="14.00" fill="#c0caf5">pc13: SSTORE</text>
<text text-anchor="middle" x="252" y="-1479.8" font-family="Helvetica,sans-Serif" font-size="14.00" fill="#c0caf5">pc14: STOP</text>
<text text-anchor="middle" x="252" y="-1448.8" font-family="Helvetica,sans-Serif" font-size="14.00" fill="#c0caf5">Stack size req: 2, sizeΔ: &#45;2</text>
<text text-anchor="middle" x="252" y="-1433.8" font-family="Helvetica,sans-Serif" font-size="14.00" fill="#c0caf5">Entry&#45;&gt;Op usage:</text>
<text text-anchor="middle" x="252" y="-1418.8" font-family="Helvetica,sans-Serif" font-size="14.00" fill="#c0caf5">	0&#45;&gt;13:SSTORE:0</text>
<text text-anchor="middle" x="252" y="-1403.8" font-family="Helvetica,sans-Serif" font-size="14.00" fill="#c0caf5">	1&#45;&gt;12:POP:0</text>
<text text-anchor="middle" x="252" y="-1388.8" font-family="Helvetica,sans-Serif" font-size="14.00" fill="#c0caf5">Entry&#45;&gt;Exit:</text>
<text text-anchor="middle" x="252" y="-1373.8" font-family="Helvetica,sans-Serif" font-size="14.00" fill="#c0caf5">	0&#45;&gt;😵</text>
<text text-anchor="middle" x="252" y="-1358.8" font-family="Helvetica,sans-Serif" font-size="14.00" fill="#c0caf5">	1&#45;&gt;😵</text>
</g>
<!-- 0&#45;&gt;1 -->
<g id="edge1" class="edge">
<title>0&#45;&gt;1</title>
<path fill="none" stroke="#f7768e" d="M268.58,-1612.24C266.95,-1596.71 265.29,-1580.84 263.67,-1565.43"/>
<polygon fill="#f7768e" stroke="#f7768e" points="267.14,-1564.97 262.62,-1555.38 260.18,-1565.7 267.14,-1564.97"/>
<text text-anchor="middle" x="284" y="-1576.8" font-family="Helvetica,sans-Serif" font-size="14.00" fill="#c0caf5">False</text>
</g>
<!-- 2 -->
<g id="node3" class="node">
<title>2</title>
<path fill="#24283b" stroke="#565f89" d="M553.5,-1555C553.5,-1555 382.5,-1555 382.5,-1555 376.5,-1555 370.5,-1549 370.5,-1543 370.5,-1543 370.5,-1363 370.5,-1363 370.5,-1357 376.5,-1351 382.5,-1351 382.5,-1351 553.5,-1351 553.5,-1351 559.5,-1351 565.5,-1357 565.5,-1363 565.5,-1363 565.5,-1543 565.5,-1543 565.5,-1549 559.5,-1555 553.5,-1555"/>
<text text-anchor="middle" x="468" y="-1539.8" font-family="Helvetica,sans-Serif" font-size="14.00" fill="#c0caf5">pc15: JUMPDEST</text>
<text text-anchor="middle" x="468" y="-1524.8" font-family="Helvetica,sans-Serif" font-size="14.00" fill="#c0caf5">pc16: PUSH1 1</text>
<text text-anchor="middle" x="468" y="-1509.8" font-family="Helvetica,sans-Serif" font-size="14.00" fill="#c0caf5">pc18: SWAP2</text>
<text text-anchor="middle" x="468" y="-1494.8" font-family="Helvetica,sans-Serif" font-size="14.00" fill="#c0caf5">pc19: DUP3</text>
<text text-anchor="middle" x="468" y="-1479.8" font-family="Helvetica,sans-Serif" font-size="14.00" fill="#c0caf5">pc20: SUB</text>
<text text-anchor="middle" x="468" y="-1464.8" font-family="Helvetica,sans-Serif" font-size="14.00" fill="#c0caf5">pc21: PUSH1 101</text>
<text text-anchor="middle" x="468" y="-1449.8" font-family="Helvetica,sans-Serif" font-size="14.00" fill="#c0caf5">pc23: JUMPI</text>
<text text-anchor="middle" x="468" y="-1418.8" font-family="Helvetica,sans-Serif" font-size="14.00" fill="#c0caf5">Stack size req: 2, sizeΔ: 0</text>
<text text-anchor="middle" x="468" y="-1403.8" font-family="Helvetica,sans-Serif" font-size="14.00" fill="#c0caf5">Entry&#45;&gt;Op usage:</text>
<text text-anchor="middle" x="468" y="-1388.8" font-family="Helvetica,sans-Serif" font-size="14.00" fill="#c0caf5">	1&#45;&gt;20:SUB:1</text>
<text text-anchor="middle" x="468" y="-1373.8" font-family="Helvetica,sans-Serif" font-size="14.00" fill="#c0caf5">Entry&#45;&gt;Exit:</text>
<text text-anchor="middle" x="468" y="-1358.8" font-family="Helvetica,sans-Serif" font-size="14.00" fill="#c0caf5">	1&#45;&gt;😵</text>
</g>
<!-- 0&#45;&gt;2 -->
<g id="edge2" class="edge">
<title>0&#45;&gt;2</title>
<path fill="none" stroke="#9ece6a" d="M343.79,-1637.9C359.9,-1614.05 377.38,-1588.17 394,-1563.56"/>
<polygon fill="#9ece6a" stroke="#9ece6a" points="396.9,-1565.52 399.6,-1555.27 391.1,-1561.6 396.9,-1565.52"/>
<text text-anchor="middle" x="401" y="-1576.8" font-family="Helvetica,sans-Serif" font-size="14.00" fill="#c0caf5">True</text>
</g>
<!-- 3 -->
<g id="node4" class="node">
<title>3</title>
<path fill="#24283b" stroke="#565f89" d="M405.5,-1255C405.5,-1255 234.5,-1255 234.5,-1255 228.5,-1255 222.5,-1249 222.5,-1243 222.5,-1243 222.5,-1183 222.5,-1183 222.5,-1177 228.5,-1171 234.5,-1171 234.5,-1171 405.5,-1171 405.5,-1171 411.5,-1171 417.5,-1177 417.5,-1183 417.5,-1183 417.5,-1243 417.5,-1243 417.5,-1249 411.5,-1255 405.5,-1255"/>
<text text-anchor="middle" x="320" y="-1239.8" font-family="Helvetica,sans-Serif" font-size="14.00" fill="#c0caf5">pc24: DUP1</text>
<text text-anchor="middle" x="320" y="-1208.8" font-family="Helvetica,sans-Serif" font-size="14.00" fill="#c0caf5">Stack size req: 1, sizeΔ: 1</text>
<text text-anchor="middle" x="320" y="-1193.8" font-family="Helvetica,sans-Serif" font-size="14.00" fill="#c0caf5">Entry&#45;&gt;Exit:</text>
<text text-anchor="middle" x="320" y="-1178.8" font-family="Helvetica,sans-Serif" font-size="14.00" fill="#c0caf5">	0&#45;&gt;0, 1</text>
</g>
<!-- 2&#45;&gt;3 -->
<g id="edge3" class="edge">
<title>2&#45;&gt;3</title>
<path fill="none" stroke="#f7768e" d="M405.02,-1350.72C386.3,-1320.62 366.62,-1288.96 350.91,-1263.71"/>
<polygon fill="#f7768e" stroke="#f7768e" points="353.78,-1261.69 345.53,-1255.05 347.84,-1265.39 353.78,-1261.69"/>
<text text-anchor="middle" x="412" y="-1321.8" font-family="Helvetica,sans-Serif" font-size="14.00" fill="#c0caf5">False</text>
</g>
<!-- 11 -->
<g id="node12" class="node">
<title>11</title>
<path fill="#24283b" stroke="darkblue" d="M624,-1300C624,-1300 448,-1300 448,-1300 442,-1300 436,-1294 436,-1288 436,-1288 436,-1138 436,-1138 436,-1132 442,-1126 448,-1126 448,-1126 624,-1126 624,-1126 630,-1126 636,-1132 636,-1138 636,-1138 636,-1288 636,-1288 636,-1294 630,-1300 624,-1300"/>
<text text-anchor="middle" x="536" y="-1284.8" font-family="Helvetica,sans-Serif" font-size="14.00" fill="#c0caf5">pc101: JUMPDEST</text>
<text text-anchor="middle" x="536" y="-1269.8" font-family="Helvetica,sans-Serif" font-size="14.00" fill="#c0caf5">pc102: DUP1</text>
<text text-anchor="middle" x="536" y="-1254.8" font-family="Helvetica,sans-Serif" font-size="14.00" fill="#c0caf5">pc103: SSTORE</text>
<text text-anchor="middle" x="536" y="-1239.8" font-family="Helvetica,sans-Serif" font-size="14.00" fill="#c0caf5">pc104: STOP</text>
<text text-anchor="middle" x="536" y="-1208.8" font-family="Helvetica,sans-Serif" font-size="14.00" fill="#c0caf5">Stack size req: 1, sizeΔ: &#45;1</text>
<text text-anchor="middle" x="536" y="-1193.8" font-family="Helvetica,sans-Serif" font-size="14.00" fill="#c0caf5">Entry&#45;&gt;Op usage:</text>
<text text-anchor="middle" x="536" y="-1178.8" font-family="Helvetica,sans-Serif" font-size="14.00" fill="#c0caf5">	0&#45;&gt;103:SSTORE:1</text>
<text text-anchor="middle" x="536" y="-1163.8" font-family="Helvetica,sans-Serif" font-size="14.00" fill="#c0caf5">	0&#45;&gt;103:SSTORE:0</text>
<text text-anchor="middle" x="536" y="-1148.8" font-family="Helvetica,sans-Serif" font-size="14.00" fill="#c0caf5">Entry&#45;&gt;Exit:</text>
<text text-anchor="middle" x="536" y="-1133.8" font-family="Helvetica,sans-Serif" font-size="14.00" fill="#c0caf5">	0&#45;&gt;😵</text>
</g>
<!-- 2&#45;&gt;11 -->
<g id="edge4" class="edge">
<title>2&#45;&gt;11</title>
<path fill="none" stroke="#9ece6a" d="M496.94,-1350.72C500.81,-1337.18 504.76,-1323.33 508.6,-1309.88"/>
<polygon fill="#9ece6a" stroke="#9ece6a" points="512,-1310.75 511.38,-1300.18 505.27,-1308.83 512,-1310.75"/>
<text text-anchor="middle" x="522" y="-1321.8" font-family="Helvetica,sans-Serif" font-size="14.00" fill="#c0caf5">True</text>
</g>
<!-- 4 -->
<g id="node5" class="node">
<title>4</title>
<path fill="#24283b" stroke="#565f89" d="M405.5,-1089C405.5,-1089 234.5,-1089 234.5,-1089 228.5,-1089 222.5,-1083 222.5,-1077 222.5,-1077 222.5,-942 222.5,-942 222.5,-936 228.5,-930 234.5,-930 234.5,-930 405.5,-930 405.5,-930 411.5,-930 417.5,-936 417.5,-942 417.5,-942 417.5,-1077 417.5,-1077 417.5,-1083 411.5,-1089 405.5,-1089"/>
<text text-anchor="middle" x="320" y="-1073.8" font-family="Helvetica,sans-Serif" font-size="14.00" fill="#c0caf5">pc25: JUMPDEST</text>
<text text-anchor="middle" x="320" y="-1058.8" font-family="Helvetica,sans-Serif" font-size="14.00" fill="#c0caf5">pc26: PUSH1 10</text>
<text text-anchor="middle" x="320" y="-1043.8" font-family="Helvetica,sans-Serif" font-size="14.00" fill="#c0caf5">pc28: DUP2</text>
<text text-anchor="middle" x="320" y="-1028.8" font-family="Helvetica,sans-Serif" font-size="14.00" fill="#c0caf5">pc29: LT</text>
<text text-anchor="middle" x="320" y="-1013.8" font-family="Helvetica,sans-Serif" font-size="14.00" fill="#c0caf5">pc30: PUSH1 34</text>
<text text-anchor="middle" x="320" y="-998.8" font-family="Helvetica,sans-Serif" font-size="14.00" fill="#c0caf5">pc32: JUMPI</text>
<text text-anchor="middle" x="320" y="-967.8" font-family="Helvetica,sans-Serif" font-size="14.00" fill="#c0caf5">Stack size req: 1, sizeΔ: 0</text>
<text text-anchor="middle" x="320" y="-952.8" font-family="Helvetica,sans-Serif" font-size="14.00" fill="#c0caf5">Entry&#45;&gt;Op usage:</text>
<text text-anchor="middle" x="320" y="-937.8" font-family="Helvetica,sans-Serif" font-size="14.00" fill="#c0caf5">	0&#45;&gt;29:LT:0</text>
</g>
<!-- 3&#45;&gt;4 -->
<g id="edge5" class="edge">
<title>3&#45;&gt;4</title>
<path fill="none" stroke="#414868" d="M320,-1170.74C320,-1150.09 320,-1124.26 320,-1099.4"/>
<polygon fill="#414868" stroke="#414868" points="323.5,-1099.19 320,-1089.19 316.5,-1099.19 323.5,-1099.19"/>
</g>
<!-- 5 -->
<g id="node6" class="node">
<title>5</title>
<path fill="#24283b" stroke="darkblue" d="M192.5,-781.5C192.5,-781.5 21.5,-781.5 21.5,-781.5 15.5,-781.5 9.5,-775.5 9.5,-769.5 9.5,-769.5 9.5,-739.5 9.5,-739.5 9.5,-733.5 15.5,-727.5 21.5,-727.5 21.5,-727.5 192.5,-727.5 192.5,-727.5 198.5,-727.5 204.5,-733.5 204.5,-739.5 204.5,-739.5 204.5,-769.5 204.5,-769.5 204.5,-775.5 198.5,-781.5 192.5,-781.5"/>
<text text-anchor="middle" x="107" y="-766.3" font-family="Helvetica,sans-Serif" font-size="14.00" fill="#c0caf5">pc33: STOP</text>
<text text-anchor="middle" x="107" y="-735.3" font-family="Helvetica,sans-Serif" font-size="14.00" fill="#c0caf5">Stack size req: 0, sizeΔ: 0</text>
</g>
<!-- 4&#45;&gt;5 -->
<g id="edge6" class="edge">
<title>4&#45;&gt;5</title>
<path fill="none" stroke="#f7768e" d="M253.77,-929.84C214.04,-882.64 165.53,-825.02 135.44,-789.28"/>
<polygon fill="#f7768e" stroke="#f7768e" points="138.06,-786.96 128.95,-781.57 132.71,-791.47 138.06,-786.96"/>
<text text-anchor="middle" x="251" y="-900.8" font-family="Helvetica,sans-Serif" font-size="14.00" fill="#c0caf5">False</text>
</g>
<!-- 6 -->
<g id="node7" class="node">
<title>6</title>
<path fill="#24283b" stroke="#565f89" d="M405.5,-879C405.5,-879 234.5,-879 234.5,-879 228.5,-879 222.5,-873 222.5,-867 222.5,-867 222.5,-642 222.5,-642 222.5,-636 228.5,-630 234.5,-630 234.5,-630 405.5,-630 405.5,-630 411.5,-630 417.5,-636 417.5,-642 417.5,-642 417.5,-867 417.5,-867 417.5,-873 411.5,-879 405.5,-879"/>
<text text-anchor="middle" x="320" y="-863.8" font-family="Helvetica,sans-Serif" font-size="14.00" fill="#c0caf5">pc34: JUMPDEST</text>
<text text-anchor="middle" x="320" y="-848.8" font-family="Helvetica,sans-Serif" font-size="14.00" fill="#c0caf5">pc35: DUP3</text>
<text text-anchor="middle" x="320" y="-833.8" font-family="Helvetica,sans-Serif" font-size="14.00" fill="#c0caf5">pc36: SLOAD</text>
<text text-anchor="middle" x="320" y="-818.8" font-family="Helvetica,sans-Serif" font-size="14.00" fill="#c0caf5">pc37: DUP2</text>
<text text-anchor="middle" x="320" y="-803.8" font-family="Helvetica,sans-Serif" font-size="14.00" fill="#c0caf5">pc38: DUP2</text>
<text text-anchor="middle" x="320" y="-788.8" font-family="Helvetica,sans-Serif" font-size="14.00" fill="#c0caf5">pc39: ADD</text>
<text text-anchor="middle" x="320" y="-773.8" font-family="Helvetica,sans-Serif" font-size="14.00" fill="#c0caf5">pc40: DUP1</text>
<text text-anchor="middle" x="320" y="-758.8" font-family="Helvetica,sans-Serif" font-size="14.00" fill="#c0caf5">pc41: SWAP2</text>
<text text-anchor="middle" x="320" y="-743.8" font-family="Helvetica,sans-Serif" font-size="14.00" fill="#c0caf5">pc42: GT</text>
<text text-anchor="middle" x="320" y="-728.8" font-family="Helvetica,sans-Serif" font-size="14.00" fill="#c0caf5">pc43: PUSH1 81</text>
<text text-anchor="middle" x="320" y="-713.8" font-family="Helvetica,sans-Serif" font-size="14.00" fill="#c0caf5">pc45: JUMPI</text>
<text text-anchor="middle" x="320" y="-682.8" font-family="Helvetica,sans-Serif" font-size="14.00" fill="#c0caf5">Stack size req: 3, sizeΔ: 1</text>
<text text-anchor="middle" x="320" y="-667.8" font-family="Helvetica,sans-Serif" font-size="14.00" fill="#c0caf5">Entry&#45;&gt;Op usage:</text>
<text text-anchor="middle" x="320" y="-652.8" font-family="Helvetica,sans-Serif" font-size="14.00" fill="#c0caf5">	0&#45;&gt;39:ADD:1</text>
<text text-anchor="middle" x="320" y="-637.8" font-family="Helvetica,sans-Serif" font-size="14.00" fill="#c0caf5">	2&#45;&gt;36:SLOAD:0</text>
</g>
<!-- 4&#45;&gt;6 -->
<g id="edge7" class="edge">
<title>4&#45;&gt;6</title>
<path fill="none" stroke="#9ece6a" d="M320,-929.84C320,-916.88 320,-903.14 320,-889.28"/>
<polygon fill="#9ece6a" stroke="#9ece6a" points="323.5,-889.18 320,-879.18 316.5,-889.18 323.5,-889.18"/>
<text text-anchor="middle" x="335" y="-900.8" font-family="Helvetica,sans-Serif" font-size="14.00" fill="#c0caf5">True</text>
</g>
<!-- 7 -->
<g id="node8" class="node">
<title>7</title>
<path fill="#24283b" stroke="#565f89" d="M408,-571.5C408,-571.5 232,-571.5 232,-571.5 226,-571.5 220,-565.5 220,-559.5 220,-559.5 220,-334.5 220,-334.5 220,-328.5 226,-322.5 232,-322.5 232,-322.5 408,-322.5 408,-322.5 414,-322.5 420,-328.5 420,-334.5 420,-334.5 420,-559.5 420,-559.5 420,-565.5 414,-571.5 408,-571.5"/>
<text text-anchor="middle" x="320" y="-556.3" font-family="Helvetica,sans-Serif" font-size="14.00" fill="#c0caf5">pc46: DUP4</text>
<text text-anchor="middle" x="320" y="-541.3" font-family="Helvetica,sans-Serif" font-size="14.00" fill="#c0caf5">pc47: SSTORE</text>
<text text-anchor="middle" x="320" y="-526.3" font-family="Helvetica,sans-Serif" font-size="14.00" fill="#c0caf5">pc48: PUSH1 0</text>
<text text-anchor="middle" x="320" y="-511.3" font-family="Helvetica,sans-Serif" font-size="14.00" fill="#c0caf5">pc50: NOT</text>
<text text-anchor="middle" x="320" y="-496.3" font-family="Helvetica,sans-Serif" font-size="14.00" fill="#c0caf5">pc51: DUP2</text>
<text text-anchor="middle" x="320" y="-481.3" font-family="Helvetica,sans-Serif" font-size="14.00" fill="#c0caf5">pc52: EQ</text>
<text text-anchor="middle" x="320" y="-466.3" font-family="Helvetica,sans-Serif" font-size="14.00" fill="#c0caf5">pc53: PUSH1 61</text>
<text text-anchor="middle" x="320" y="-451.3" font-family="Helvetica,sans-Serif" font-size="14.00" fill="#c0caf5">pc55: JUMPI</text>
<text text-anchor="middle" x="320" y="-420.3" font-family="Helvetica,sans-Serif" font-size="14.00" fill="#c0caf5">Stack size req: 4, sizeΔ: &#45;1</text>
<text text-anchor="middle" x="320" y="-405.3" font-family="Helvetica,sans-Serif" font-size="14.00" fill="#c0caf5">Entry&#45;&gt;Op usage:</text>
<text text-anchor="middle" x="320" y="-390.3" font-family="Helvetica,sans-Serif" font-size="14.00" fill="#c0caf5">	0&#45;&gt;47:SSTORE:1</text>
<text text-anchor="middle" x="320" y="-375.3" font-family="Helvetica,sans-Serif" font-size="14.00" fill="#c0caf5">	1&#45;&gt;52:EQ:0</text>
<text text-anchor="middle" x="320" y="-360.3" font-family="Helvetica,sans-Serif" font-size="14.00" fill="#c0caf5">	3&#45;&gt;47:SSTORE:0</text>
<text text-anchor="middle" x="320" y="-345.3" font-family="Helvetica,sans-Serif" font-size="14.00" fill="#c0caf5">Entry&#45;&gt;Exit:</text>
<text text-anchor="middle" x="320" y="-330.3" font-family="Helvetica,sans-Serif" font-size="14.00" fill="#c0caf5">	0&#45;&gt;😵</text>
</g>
<!-- 6&#45;&gt;7 -->
<g id="edge8" class="edge">
<title>6&#45;&gt;7</title>
<path fill="none" stroke="#f7768e" d="M320,-629.68C320,-614.08 320,-598.06 320,-582.3"/>
<polygon fill="#f7768e" stroke="#f7768e" points="323.5,-581.99 320,-571.99 316.5,-581.99 323.5,-581.99"/>
<text text-anchor="middle" x="338" y="-600.8" font-family="Helvetica,sans-Serif" font-size="14.00" fill="#c0caf5">False</text>
</g>
<!-- 10 -->
<g id="node11" class="node">
<title>10</title>
<path fill="#24283b" stroke="red" d="M190,-579C190,-579 12,-579 12,-579 6,-579 0,-573 0,-567 0,-567 0,-327 0,-327 0,-321 6,-315 12,-315 12,-315 190,-315 190,-315 196,-315 202,-321 202,-327 202,-327 202,-567 202,-567 202,-573 196,-579 190,-579"/>
<text text-anchor="middle" x="101" y="-563.8" font-family="Helvetica,sans-Serif" font-size="14.00" fill="#c0caf5">pc81: JUMPDEST</text>
<text text-anchor="middle" x="101" y="-548.8" font-family="Helvetica,sans-Serif" font-size="14.00" fill="#c0caf5">pc82: PUSH4 1313373041</text>
<text text-anchor="middle" x="101" y="-533.8" font-family="Helvetica,sans-Serif" font-size="14.00" fill="#c0caf5">pc87: PUSH1 224</text>
<text text-anchor="middle" x="101" y="-518.8" font-family="Helvetica,sans-Serif" font-size="14.00" fill="#c0caf5">pc89: SHL</text>
<text text-anchor="middle" x="101" y="-503.8" font-family="Helvetica,sans-Serif" font-size="14.00" fill="#c0caf5">pc90: DUP4</text>
<text text-anchor="middle" x="101" y="-488.8" font-family="Helvetica,sans-Serif" font-size="14.00" fill="#c0caf5">pc91: MSTORE</text>
<text text-anchor="middle" x="101" y="-473.8" font-family="Helvetica,sans-Serif" font-size="14.00" fill="#c0caf5">pc92: PUSH1 17</text>
<text text-anchor="middle" x="101" y="-458.8" font-family="Helvetica,sans-Serif" font-size="14.00" fill="#c0caf5">pc94: PUSH1 4</text>
<text text-anchor="middle" x="101" y="-443.8" font-family="Helvetica,sans-Serif" font-size="14.00" fill="#c0caf5">pc96: MSTORE</text>
<text text-anchor="middle" x="101" y="-428.8" font-family="Helvetica,sans-Serif" font-size="14.00" fill="#c0caf5">pc97: PUSH1 36</text>
<text text-anchor="middle" x="101" y="-413.8" font-family="Helvetica,sans-Serif" font-size="14.00" fill="#c0caf5">pc99: DUP4</text>
<text text-anchor="middle" x="101" y="-398.8" font-family="Helvetica,sans-Serif" font-size="14.00" fill="#c0caf5">pc100: REVERT</text>
<text text-anchor="middle" x="101" y="-367.8" font-family="Helvetica,sans-Serif" font-size="14.00" fill="#c0caf5">Stack size req: 3, sizeΔ: 0</text>
<text text-anchor="middle" x="101" y="-352.8" font-family="Helvetica,sans-Serif" font-size="14.00" fill="#c0caf5">Entry&#45;&gt;Op usage:</text>
<text text-anchor="middle" x="101" y="-337.8" font-family="Helvetica,sans-Serif" font-size="14.00" fill="#c0caf5">	2&#45;&gt;91:MSTORE:0</text>
<text text-anchor="middle" x="101" y="-322.8" font-family="Helvetica,sans-Serif" font-size="14.00" fill="#c0caf5">	2&#45;&gt;100:REVERT:0</text>
</g>
<!-- 6&#45;&gt;10 -->
<g id="edge9" class="edge">
<title>6&#45;&gt;10</title>
<path fill="none" stroke="#9ece6a" d="M231.24,-629.68C221.33,-615.86 211.18,-601.7 201.14,-587.69"/>
<polygon fill="#9ece6a" stroke="#9ece6a" points="203.91,-585.56 195.24,-579.47 198.23,-589.63 203.91,-585.56"/>
<text text-anchor="middle" x="233" y="-600.8" font-family="Helvetica,sans-Serif" font-size="14.00" fill="#c0caf5">True</text>
</g>
<!-- 8 -->
<g id="node9" class="node">
<title>8</title>
<path fill="#24283b" stroke="#565f89" d="M533.5,-219C533.5,-219 362.5,-219 362.5,-219 356.5,-219 350.5,-213 350.5,-207 350.5,-207 350.5,-57 350.5,-57 350.5,-51 356.5,-45 362.5,-45 362.5,-45 533.5,-45 533.5,-45 539.5,-45 545.5,-51 545.5,-57 545.5,-57 545.5,-207 545.5,-207 545.5,-213 539.5,-219 533.5,-219"/>
<text text-anchor="middle" x="448" y="-203.8" font-family="Helvetica,sans-Serif" font-size="14.00" fill="#c0caf5">pc56: DUP3</text>
<text text-anchor="middle" x="448" y="-188.8" font-family="Helvetica,sans-Serif" font-size="14.00" fill="#c0caf5">pc57: ADD</text>
<text text-anchor="middle" x="448" y="-173.8" font-family="Helvetica,sans-Serif" font-size="14.00" fill="#c0caf5">pc58: PUSH1 25</text>
<text text-anchor="middle" x="448" y="-158.8" font-family="Helvetica,sans-Serif" font-size="14.00" fill="#c0caf5">pc60: JUMP</text>
<text text-anchor="middle" x="448" y="-127.8" font-family="Helvetica,sans-Serif" font-size="14.00" fill="#c0caf5">Stack size req: 3, sizeΔ: 0</text>
<text text-anchor="middle" x="448" y="-112.8" font-family="Helvetica,sans-Serif" font-size="14.00" fill="#c0caf5">Entry&#45;&gt;Op usage:</text>
<text text-anchor="middle" x="448" y="-97.8" font-family="Helvetica,sans-Serif" font-size="14.00" fill="#c0caf5">	0&#45;&gt;57:ADD:1</text>
<text text-anchor="middle" x="448" y="-82.8" font-family="Helvetica,sans-Serif" font-size="14.00" fill="#c0caf5">	2&#45;&gt;57:ADD:0</text>
<text text-anchor="middle" x="448" y="-67.8" font-family="Helvetica,sans-Serif" font-size="14.00" fill="#c0caf5">Entry&#45;&gt;Exit:</text>
<text text-anchor="middle" x="448" y="-52.8" font-family="Helvetica,sans-Serif" font-size="14.00" fill="#c0caf5">	0&#45;&gt;😵</text>
</g>
<!-- 7&#45;&gt;8 -->
<g id="edge10" class="edge">
<title>7&#45;&gt;8</title>
<path fill="none" stroke="#f7768e" d="M370.59,-322.29C383.33,-291.15 396.81,-258.19 408.88,-228.65"/>
<polygon fill="#f7768e" stroke="#f7768e" points="412.21,-229.77 412.75,-219.19 405.73,-227.12 412.21,-229.77"/>
<text text-anchor="middle" x="402" y="-285.8" font-family="Helvetica,sans-Serif" font-size="14.00" fill="#c0caf5">False</text>
</g>
<!-- 9 -->
<g id="node10" class="node">
<title>9</title>
<path fill="#24283b" stroke="red" d="M320,-264C320,-264 142,-264 142,-264 136,-264 130,-258 130,-252 130,-252 130,-12 130,-12 130,-6 136,0 142,0 142,0 320,0 320,0 326,0 332,-6 332,-12 332,-12 332,-252 332,-252 332,-258 326,-264 320,-264"/>
<text text-anchor="middle" x="231" y="-248.8" font-family="Helvetica,sans-Serif" font-size="14.00" fill="#c0caf5">pc61: JUMPDEST</text>
<text text-anchor="middle" x="231" y="-233.8" font-family="Helvetica,sans-Serif" font-size="14.00" fill="#c0caf5">pc62: PUSH4 1313373041</text>
<text text-anchor="middle" x="231" y="-218.8" font-family="Helvetica,sans-Serif" font-size="14.00" fill="#c0caf5">pc67: PUSH1 224</text>
<text text-anchor="middle" x="231" y="-203.8" font-family="Helvetica,sans-Serif" font-size="14.00" fill="#c0caf5">pc69: SHL</text>
<text text-anchor="middle" x="231" y="-188.8" font-family="Helvetica,sans-Serif" font-size="14.00" fill="#c0caf5">pc70: DUP3</text>
<text text-anchor="middle" x="231" y="-173.8" font-family="Helvetica,sans-Serif" font-size="14.00" fill="#c0caf5">pc71: MSTORE</text>
<text text-anchor="middle" x="231" y="-158.8" font-family="Helvetica,sans-Serif" font-size="14.00" fill="#c0caf5">pc72: PUSH1 17</text>
<text text-anchor="middle" x="231" y="-143.8" font-family="Helvetica,sans-Serif" font-size="14.00" fill="#c0caf5">pc74: PUSH1 4</text>
<text text-anchor="middle" x="231" y="-128.8" font-family="Helvetica,sans-Serif" font-size="14.00" fill="#c0caf5">pc76: MSTORE</text>
<text text-anchor="middle" x="231" y="-113.8" font-family="Helvetica,sans-Serif" font-size="14.00" fill="#c0caf5">pc77: PUSH1 36</text>
<text text-anchor="middle" x="231" y="-98.8" font-family="Helvetica,sans-Serif" font-size="14.00" fill="#c0caf5">pc79: DUP3</text>
<text text-anchor="middle" x="231" y="-83.8" font-family="Helvetica,sans-Serif" font-size="14.00" fill="#c0caf5">pc80: REVERT</text>
<text text-anchor="middle" x="231" y="-52.8" font-family="Helvetica,sans-Serif" font-size="14.00" fill="#c0caf5">Stack size req: 2, sizeΔ: 0</text>
<text text-anchor="middle" x="231" y="-37.8" font-family="Helvetica,sans-Serif" font-size="14.00" fill="#c0caf5">Entry&#45;&gt;Op usage:</text>
<text text-anchor="middle" x="231" y="-22.8" font-family="Helvetica,sans-Serif" font-size="14.00" fill="#c0caf5">	1&#45;&gt;71:MSTORE:0</text>
<text text-anchor="middle" x="231" y="-7.8" font-family="Helvetica,sans-Serif" font-size="14.00" fill="#c0caf5">	1&#45;&gt;80:REVERT:0</text>
</g>
<!-- 7&#45;&gt;9 -->
<g id="edge11" class="edge">
<title>7&#45;&gt;9</title>
<path fill="none" stroke="#9ece6a" d="M284.82,-322.29C280.32,-306.45 275.68,-290.13 271.1,-274.03"/>
<polygon fill="#9ece6a" stroke="#9ece6a" points="274.36,-272.7 268.26,-264.04 267.63,-274.62 274.36,-272.7"/>
<text text-anchor="middle" x="291" y="-285.8" font-family="Helvetica,sans-Serif" font-size="14.00" fill="#c0caf5">True</text>
</g>
<!-- 8&#45;&gt;4 -->
<g id="edge12" class="edge">
<title>8&#45;&gt;4</title>
<path fill="none" stroke="#414868" d="M462.89,-219.19C483.76,-361.74 510.38,-653.25 426,-879 420.48,-893.76 412.54,-908.08 403.46,-921.48"/>
<polygon fill="#414868" stroke="#414868" points="400.56,-919.52 397.66,-929.71 406.29,-923.55 400.56,-919.52"/>
</g>
</g>
</svg>
